<svg xmlns="http://www.w3.org/2000/svg" width="300" height="300" viewBox="0 0 300 300">
  <rect width="300" height="300" fill="#FFFFFF"/>
  <rect x="20" y="20" width="80" height="80" fill="#333333"/>
  <rect x="30" y="30" width="60" height="60" fill="#FFFFFF"/>
  <rect x="40" y="40" width="40" height="40" fill="#333333"/>
  <rect x="200" y="20" width="80" height="80" fill="#333333"/>
  <rect x="210" y="30" width="60" height="60" fill="#FFFFFF"/>
  <rect x="220" y="40" width="40" height="40" fill="#333333"/>
  <rect x="20" y="200" width="80" height="80" fill="#333333"/>
  <rect x="30" y="210" width="60" height="60" fill="#FFFFFF"/>
  <rect x="40" y="220" width="40" height="40" fill="#333333"/>
  <rect x="120" y="20" width="20" height="20" fill="#333333"/>
  <rect x="160" y="20" width="20" height="20" fill="#333333"/>
  <rect x="120" y="60" width="20" height="20" fill="#333333"/>
  <rect x="140" y="40" width="20" height="20" fill="#333333"/>
  <rect x="120" y="120" width="60" height="60" fill="#333333"/>
  <rect x="130" y="130" width="40" height="40" fill="#FFFFFF"/>
  <rect x="140" y="140" width="20" height="20" fill="#333333"/>
  <rect x="20" y="120" width="20" height="20" fill="#333333"/>
  <rect x="60" y="120" width="20" height="20" fill="#333333"/>
  <rect x="20" y="160" width="20" height="20" fill="#333333"/>
  <rect x="40" y="140" width="20" height="20" fill="#333333"/>
  <rect x="200" y="120" width="20" height="20" fill="#333333"/>
  <rect x="220" y="140" width="20" height="20" fill="#333333"/>
  <rect x="260" y="120" width="20" height="20" fill="#333333"/>
  <rect x="200" y="160" width="20" height="20" fill="#333333"/>
  <rect x="240" y="160" width="20" height="20" fill="#333333"/>
  <rect x="120" y="200" width="20" height="20" fill="#333333"/>
  <rect x="160" y="200" width="20" height="20" fill="#333333"/>
  <rect x="120" y="220" width="20" height="20" fill="#333333"/>
  <rect x="140" y="240" width="20" height="20" fill="#333333"/>
  <rect x="180" y="220" width="20" height="20" fill="#333333"/>
  <rect x="200" y="200" width="20" height="20" fill="#333333"/>
  <rect x="220" y="220" width="20" height="20" fill="#333333"/>
  <rect x="240" y="200" width="20" height="20" fill="#333333"/>
  <rect x="260" y="240" width="20" height="20" fill="#333333"/>
  <rect x="200" y="260" width="20" height="20" fill="#333333"/>
  <rect x="240" y="260" width="20" height="20" fill="#333333"/>
  <text x="150" y="290" font-family="Arial" font-size="12" fill="#999999" text-anchor="middle">收款二维码占位图</text>
</svg>